<svg xmlns="http://www.w3.org/2000/svg" viewBox="0 0 193.36 193.36"><defs><style>.cls-1{fill:gray;}</style></defs><g id="Capa_2" data-name="Capa 2"><g id="Capa_1-2" data-name="Capa 1"><path class="cls-1" d="M96.74,0c52.78-.57,96.56,43.34,96.62,96.55s-44.15,97.8-98.63,96.78c-51.85-1-95.92-44.44-94.71-99C1.18,42.5,44.23-.59,96.74,0ZM18.53,98.61c.8,42.93,36.7,77,80.25,76.19,42.84-.8,76.91-36.84,76-80.42C174,51.62,138.12,17.7,94.56,18.43,51.9,19.13,17.72,55.18,18.53,98.61Z"/><path class="cls-1" d="M112.69,97.28,70.31,56.17l15-14.73,56.35,55.68L85.17,152.91l-14.79-14.7C84.25,124.8,98.19,111.32,112.69,97.28Z"/></g></g></svg>